<?xml version="1.0" encoding="UTF-8"?>
<svg id="Layer_2" data-name="Layer 2" xmlns="http://www.w3.org/2000/svg" viewBox="0 0 340.93 76.5">
  <defs>
    <style>
      .cls-1 {
        fill: #fff;
      }

      .cls-2 {
        fill: #1a2d57;
      }
    </style>
  </defs>
  <g id="Layer_1-2" data-name="Layer 1">
    <path class="cls-2" d="M56.34,30.6h-5.34v-12.24h-9.18V0h-12.62l-7.22,15.09h-.11L14.66,0H2.04V38.25h6.87C3.53,41.87,0,48.01,0,54.97c0,11.13,9.02,20.15,20.15,20.15,4.15,0,8-1.25,11.21-3.4l-1.94,4.79h12.65l2.42-6.12h14l2.4,6.12h13.7L56.34,30.6Z"/>
    <path class="cls-1" d="M66.07,70.46h0l-13.79-34.85c-.13-.33-.44-.54-.79-.54s-.66,.21-.79,.54l-5.9,14.92V25.52c0-.4-.27-.74-.66-.83-.39-.09-.79,.1-.95,.47l-12.06,25.31-8.23-17.28,11.04-23.16v23.79c0,.47,.38,.85,.85,.85s.85-.38,.85-.85V6.26c0-.4-.27-.74-.67-.83-.38-.09-.79,.1-.95,.46l-12.06,25.31L9.87,5.89c-.17-.36-.57-.55-.96-.46-.39,.09-.66,.43-.66,.83v27.55c0,.47,.38,.85,.85,.85s.85-.38,.85-.85V10.02l7.47,15.69v15.38c-.44,.08-.88,.19-1.33,.32-6.15,1.83-10.14,7.46-10.13,13.57,0,1.33,.19,2.69,.59,4.03,1.82,6.15,7.46,10.13,13.56,10.13,1.33,0,2.69-.18,4.03-.58,4.75-1.41,8.21-5.1,9.54-9.51,.13-.45-.13-.92-.58-1.06-.45-.14-.92,.12-1.06,.57-1.17,3.89-4.21,7.13-8.39,8.37-1.18,.36-2.38,.52-3.55,.52-5.37,0-10.34-3.51-11.94-8.92-.35-1.19-.52-2.38-.52-3.55,0-5.37,3.5-10.34,8.91-11.94,.28-.09,.56-.16,.84-.22v10.25c0,.47,.38,.85,.85,.85s.85-.38,.85-.85v-10.51c.34-.03,.68-.04,1.01-.04,.25,0,.5,0,.74,.02,.47,.03,.87-.33,.9-.8,.03-.47-.33-.87-.8-.9-.28-.02-.56-.03-.84-.03-.33,0-.67,.01-1.01,.03v-11.57l11.21,23.53c.14,.3,.44,.49,.77,.49s.63-.19,.77-.49l11.21-23.53v25.55l-6.19,15.63c-.17,.44,.05,.93,.48,1.11,.44,.17,.93-.04,1.11-.48l3.9-9.86h18.19l3.9,9.86c.13,.34,.46,.54,.79,.54,.11,0,.21-.02,.31-.06,.44-.17,.65-.66,.48-1.11m-23.02-10.93l8.43-21.3,8.43,21.3h-16.85Z"/>
    <path class="cls-1" d="M111.65,37.52v-3.93h-7.81c.53-1.47,.96-3.16,1.29-5.12,.4-2.34,.59-4.75,.59-7.23v-1.73h-23.51v3.93h19.03c0,.68-.04,1.44-.13,2.31-.08,.86-.21,1.76-.38,2.73-.17,.96-.39,1.92-.65,2.87-.22,.79-.47,1.53-.74,2.24h-23.05v3.93h15.48v6.55h-9.77v3.93h19.11v10.14h4.48v-14.08h-9.34v-6.55h15.39Z"/>
    <path class="cls-1" d="M129.16,27.87v-3.93h-12.35v-3.94h16.83v11.76h-12.34v3.93h5.2c.73,0,1.59-.03,2.58-.08,.99-.06,2.01-.14,3.06-.24,1.06-.1,2.09-.22,3.11-.38,1.02-.15,1.91-.33,2.66-.53l.64,3.72c-.82,.25-1.81,.47-2.98,.64-1.17,.17-2.39,.31-3.67,.42-1.28,.12-2.59,.21-3.93,.28-1.34,.07-2.58,.1-3.74,.1h-5.71c-1.13,0-1.69-.56-1.69-1.69v-10.06h12.35Zm-3,30.27c-1.13,0-1.69-.56-1.69-1.69v-13.83h4.48v4.1h13.11v-4.1h4.48v15.52h-20.38Zm2.79-3.93h13.11v-3.59h-13.11v3.59Zm17.59-13.91h-4.48V18.36h4.48v21.94Z"/>
    <path class="cls-1" d="M171.58,32.41c-.41-.94-.98-1.76-1.71-2.45-.73-.69-1.61-1.24-2.64-1.63-1.03-.39-2.17-.59-3.4-.59s-2.32,.2-3.34,.59c-1.02,.39-1.9,.94-2.65,1.63-.74,.69-1.32,1.51-1.73,2.45-.41,.95-.61,1.95-.61,3.02s.2,2.07,.61,2.98c.41,.92,.99,1.73,1.73,2.44,.75,.7,1.63,1.25,2.65,1.65,1.01,.39,2.12,.59,3.34,.59s2.37-.2,3.4-.59c1.03-.39,1.91-.94,2.64-1.65,.73-.71,1.31-1.52,1.71-2.44,.41-.91,.61-1.91,.61-2.98s-.2-2.08-.61-3.02m-4,4.55c-.2,.48-.47,.9-.82,1.25-.35,.35-.78,.63-1.29,.85-.51,.21-1.06,.31-1.65,.31-1.18,0-2.15-.38-2.9-1.16-.75-.78-1.12-1.7-1.12-2.77s.37-2.03,1.12-2.81c.75-.78,1.71-1.16,2.9-1.16s2.19,.39,2.94,1.16c.74,.77,1.12,1.71,1.12,2.81,0,.54-.1,1.04-.3,1.52"/>
    <polygon class="cls-1" points="166.06 22.63 166.06 17.81 161.58 17.81 161.58 22.63 152.92 22.63 152.92 26.39 174.82 26.39 174.82 22.63 166.06 22.63"/>
    <path class="cls-1" d="M164.67,57.17c-1.13,0-1.69-.56-1.69-1.69v-9.51h4.48v7.27h18.27v3.93h-21.06Z"/>
    <polygon class="cls-1" points="180.44 39.75 174.52 39.75 174.52 35.86 180.44 35.86 180.44 32.18 174.52 32.18 174.52 28.29 180.44 28.29 180.44 18.36 184.92 18.36 184.92 47.61 180.44 47.61 180.44 39.75"/>
    <path class="cls-1" d="M191.73,20.94h14.17v3.93h-9.68v14.33h2.41c1.61-.05,3.25-.13,4.93-.21,1.68-.09,3.22-.3,4.63-.63l.63,3.72c-1.84,.42-3.85,.7-6.05,.83-2.2,.13-4.41,.2-6.64,.23h-2.71c-1.13,0-1.69-.56-1.69-1.69V20.94Zm27.48,12.55h-4.06v17.63h-4.36V18.86h4.36v10.79h4.06v-11.29h4.35V52.35h-4.35v-18.86Z"/>
    <path class="cls-1" d="M230.8,20.68h17.93v22.07h-16.19c-1.16,0-1.73-.56-1.73-1.69V20.68Zm4.44,18.18h9.05v-14.29h-9.05v14.29Zm25.45,13.49h-4.48V18.36h4.48V52.35Z"/>
    <path class="cls-1" d="M276.96,51.73v2.62h19.66v3.81h-22.32c-1.13,0-1.69-.56-1.69-1.69v-8.49h18.6v-2.62h-18.6v-3.81h9.34v-3h-15.39v-3.89h35.35v3.89h-15.48v3h9.13v10.19h-18.61Zm4.99-33.74h4.57v1.26c0,1.16,.34,2.24,1.02,3.24,.68,1,1.57,1.92,2.68,2.77,1.12,.85,2.41,1.59,3.87,2.24,1.46,.65,2.99,1.2,4.57,1.65l-1.78,3.51c-2.99-.91-5.58-2.02-7.8-3.34-2.21-1.32-3.82-2.79-4.84-4.4-1.01,1.61-2.63,3.08-4.84,4.4-2.21,1.32-4.82,2.44-7.81,3.34l-1.77-3.51c1.58-.45,3.1-1,4.57-1.65,1.46-.65,2.76-1.39,3.87-2.24,1.11-.84,2.01-1.77,2.68-2.77,.68-1,1.01-2.08,1.01-3.24v-1.26Z"/>
    <path class="cls-1" d="M316.5,37.68h1.23c1.8-.06,3.62-.17,5.43-.36,1.82-.18,3.56-.49,5.22-.91l.63,3.68c-.93,.25-1.98,.48-3.15,.68-1.17,.19-2.41,.35-3.72,.47-1.31,.11-2.64,.2-3.98,.27-1.34,.07-2.64,.11-3.91,.11h-9.85v-3.93h7.61v-7.87h4.49v7.87Zm9.47-15.6c0,2.65-.1,5-.31,7.08-.21,2.07-.5,3.87-.87,5.39l-4.27-.42c.31-1.61,.56-3.23,.76-4.86,.2-1.64,.3-3.29,.3-4.95h-14.67v-3.93h19.06v1.7Zm-10.99,35.09c-1.13,0-1.7-.56-1.7-1.69v-10.32h4.49v8.07h18.6v3.93h-21.39Zm25.96-27.56v3.89h-5.71v13.36h-4.48V18.36h4.48v11.24h5.71Z"/>
  </g>
</svg>